<svg width="159" height="34" viewBox="0 0 159 34" fill="none" xmlns="http://www.w3.org/2000/svg">
<path d="M151.129 21.8272C151.129 21.0884 151.667 20.5511 152.473 20.5511C153.28 20.5511 153.818 21.0884 153.818 21.8272C153.818 22.566 153.28 23.1032 152.473 23.1032C151.667 23.1032 151.129 22.566 151.129 21.8272Z" fill="#ADADAD"/>
<path d="M134.39 28.3408V30.0198C134.39 30.0198 134.39 30.1542 134.256 30.1542H132.777C132.777 30.1542 132.642 30.1542 132.642 30.0198V28.3408L130.895 25.3858C130.895 25.3186 130.895 25.2515 130.962 25.2515H132.508H132.575L133.449 26.7962C133.449 26.7962 133.584 26.7962 133.651 26.7962L134.525 25.2515C134.525 25.2515 134.525 25.2515 134.592 25.2515H136.004C136.071 25.2515 136.138 25.3186 136.071 25.3858L134.323 28.3408H134.39Z" fill="#ADADAD"/>
<path d="M140.442 29.0801V29.9532C140.442 29.9532 140.442 30.0204 140.375 30.0204H136.61C136.61 30.0204 136.543 30.0204 136.543 29.9532V25.1848C136.543 25.1848 136.543 25.1177 136.61 25.1177H140.308C140.308 25.1177 140.375 25.1177 140.375 25.1848V26.0579C140.375 26.0579 140.375 26.1251 140.308 26.1251H138.022C138.022 26.1251 137.955 26.1251 137.955 26.1922V26.8638C137.955 26.8638 137.955 26.931 138.022 26.931H140.039C140.039 26.931 140.106 26.931 140.106 26.9982V27.8712C140.106 27.8712 140.106 27.9384 140.039 27.9384H138.022C138.022 27.9384 137.955 27.9384 137.955 28.0056V28.7443C137.955 28.7443 137.955 28.8115 138.022 28.8115H140.442C140.442 28.8115 140.509 28.8115 140.509 28.8786L140.442 29.0801Z" fill="#ADADAD"/>
<path d="M144.474 29.1473H142.525H142.457L142.121 30.0204C142.121 30.0204 142.121 30.0204 142.054 30.0204H140.844C140.844 30.0204 140.709 29.9532 140.777 29.8861L142.861 25.1177C142.861 25.1177 142.861 25.1177 142.928 25.1177H144.205H144.273L146.357 29.8861C146.357 29.8861 146.357 30.0204 146.289 30.0204H145.012H144.945L144.609 29.1473C144.609 29.1473 144.609 29.1473 144.541 29.1473H144.474ZM144.071 27.9384L143.6 26.7295C143.6 26.6624 143.466 26.6624 143.399 26.7295L142.928 27.9384C142.928 27.9384 142.928 28.0727 142.995 28.0727H144.004C144.004 28.0727 144.138 28.0727 144.071 27.9384Z" fill="#ADADAD"/>
<path d="M148.911 28.7443H148.306C148.306 28.7443 148.239 28.7443 148.239 28.8115V29.9532C148.239 29.9532 148.239 30.0204 148.172 30.0204H146.962C146.962 30.0204 146.895 30.0204 146.895 29.9532V25.1848C146.895 25.1848 146.895 25.1177 146.962 25.1177H149.113C150.458 25.1177 151.332 25.7893 151.332 26.931C151.332 28.0727 150.995 28.1399 150.458 28.4757C150.458 28.4757 150.458 28.5428 150.458 28.61L151.399 29.9532C151.399 29.9532 151.399 30.0875 151.332 30.0875H150.054C150.054 30.0875 150.054 30.0875 149.987 30.0875L149.113 28.8786C149.113 28.8786 149.113 28.8786 149.046 28.8786L148.911 28.7443ZM148.979 26.2594H148.306C148.306 26.2594 148.239 26.2594 148.239 26.3266V27.6026C148.239 27.6026 148.239 27.6698 148.306 27.6698H148.979C149.584 27.6698 149.853 27.4011 149.853 26.931C149.853 26.4609 149.584 26.1922 148.979 26.1922V26.2594Z" fill="#ADADAD"/>
<path fill-rule="evenodd" clip-rule="evenodd" d="M134.388 12.4916C135.464 12.4916 136.54 12.7602 137.481 13.3646C137.75 13.5661 137.951 13.7676 138.22 13.9691C138.893 14.6407 139.43 15.5138 139.632 16.5212C139.767 17.5286 140.237 18.4017 140.977 19.1404C141.851 20.0135 143.061 20.5508 144.338 20.5508C145.615 20.5508 146.826 20.0807 147.7 19.1404C148.574 18.2673 149.111 17.0584 149.111 15.7824C149.111 14.5064 148.641 13.2975 147.7 12.4244C146.826 11.5513 145.615 11.014 144.338 11.014C143.061 11.014 141.851 11.4841 140.977 12.4244C140.372 13.0288 139.901 13.8348 139.699 14.7078C139.229 13.9019 138.557 13.1632 137.683 12.693C138.019 11.9543 138.557 11.2155 139.162 10.6111C140.573 9.2007 142.389 8.46194 144.338 8.46194C146.288 8.46194 148.17 9.2007 149.515 10.6111C150.927 12.0214 151.666 13.8348 151.666 15.7824C151.666 17.73 150.927 19.6105 149.515 20.9537C148.103 22.3641 146.288 23.1029 144.338 23.1029C142.389 23.1029 140.506 22.3641 139.162 20.9537C138.153 19.9463 137.414 18.6031 137.145 17.1928C137.01 16.6555 136.809 16.1854 136.405 15.8496C135.33 14.775 133.514 14.775 132.506 15.8496C132.439 15.9167 132.304 16.051 132.237 16.1854C132.237 16.2525 132.17 16.3197 132.103 16.3868C131.834 16.857 131.766 17.3271 131.766 17.7972C131.766 18.536 132.035 19.2076 132.573 19.6777C133.649 20.7523 135.464 20.7523 136.472 19.6777C137.481 18.6031 136.876 19.1404 137.01 18.8718C137.279 19.812 137.817 20.6179 138.557 21.2224C138.489 21.2895 138.355 21.4239 138.288 21.491C136.204 23.573 132.775 23.573 130.691 21.491C129.682 20.4836 129.145 19.2076 129.145 17.7972C129.145 16.857 129.346 15.9167 129.817 15.1108L133.716 8.39478H136.674L134.321 12.4244L134.388 12.4916Z" fill="#ADADAD"/>
<path fill-rule="evenodd" clip-rule="evenodd" d="M5.78557 15.7816C5.78557 15.7816 5.11328 15.7816 5.11328 15.1772V3.8271C5.11328 3.8271 5.11328 3.22266 5.78557 3.22266H10.2899C10.2899 3.22266 12.6429 3.22266 14.7269 4.09574C14.9286 4.1629 16.5421 4.90166 17.4161 6.58067C17.4833 6.71499 18.1556 7.85671 18.1556 9.7372C18.1556 9.87152 18.1556 11.4162 17.4833 12.6251C17.4833 12.6251 16.7438 13.9683 15.3992 14.7742C15.2648 14.8414 13.9202 15.7816 11.6344 15.7816C11.4328 15.7816 5.85279 15.7816 5.85279 15.7816M12.1723 11.6177C13.2479 11.0132 13.1807 9.7372 13.2479 9.67004C13.2479 8.25967 12.4412 7.78955 12.374 7.72239C11.5672 7.18511 10.3571 7.18511 10.3571 7.18511C10.0882 7.18511 10.0882 7.45375 10.0882 7.45375V11.8192C10.0882 12.0206 10.3571 12.0206 10.3571 12.0206C11.7017 12.0206 12.1723 11.6848 12.2395 11.6177" fill="#ADADAD"/>
<path fill-rule="evenodd" clip-rule="evenodd" d="M32.2734 3.8271C32.2734 3.8271 32.2734 3.22266 32.9457 3.22266H36.5761C36.5761 3.22266 37.2483 3.22266 37.2483 3.8271V11.1476C37.2483 11.1476 37.2483 11.752 37.9206 11.752H40.7442C40.7442 11.752 41.4165 11.752 41.4165 12.3564V15.1772C41.4165 15.1772 41.4165 15.7816 40.7442 15.7816H33.0129C33.0129 15.7816 32.3407 15.7816 32.3407 15.1772V3.8271H32.2734Z" fill="#ADADAD"/>
<path fill-rule="evenodd" clip-rule="evenodd" d="M55.8718 8.39487H49.6196C49.0145 8.39487 48.9473 8.99931 48.9473 8.99931V11.3499H50.8969C51.0986 11.3499 51.0314 11.5514 51.0314 11.6186C50.4263 12.4916 49.149 12.4916 49.0145 12.4916C47.67 12.4916 47.0649 11.3499 46.9977 11.2828C46.5943 10.544 46.5943 9.73808 46.5943 9.67092C46.6615 8.46203 47.3338 7.79043 47.4011 7.72327C48.275 6.91735 49.2162 6.98451 49.2835 6.98451C50.1574 6.98451 50.6952 7.45463 50.7625 7.52179C51.0986 7.92475 51.7037 7.72327 51.7037 7.72327C51.7037 7.72327 55.5357 6.38006 55.6702 6.38006C55.0651 5.03686 53.3172 4.23094 53.2499 4.16378C52.3087 3.69365 51.3675 3.49217 51.2331 3.42501C50.0902 3.15637 49.0145 3.15637 48.8128 3.15637C47.6027 3.15637 46.6615 3.42501 46.5271 3.49217C44.9136 3.89513 43.7707 4.90254 43.6363 5.03686C42.6278 5.9771 42.2245 6.98451 42.1572 7.11883C41.5522 8.46203 41.6194 9.80524 41.6194 9.93956C41.6194 11.1484 41.9556 11.8872 42.0228 12.0215C42.4934 13.2304 43.3673 14.1035 43.5018 14.1707C44.7119 15.2452 45.9893 15.6482 46.1909 15.6482C47.7372 16.1183 49.149 16.0511 49.2835 16.0511C51.0314 16.0511 52.376 15.3795 52.5104 15.3124C53.4516 14.9094 54.2584 14.2378 54.3928 14.1707C55.1323 13.5662 55.6029 12.7603 55.6702 12.626C56.2752 11.4842 56.3424 10.141 56.3424 10.141V9.06647C56.3424 9.13363 56.3424 8.46203 55.7374 8.46203" fill="#ADADAD"/>
<path fill-rule="evenodd" clip-rule="evenodd" d="M83.2319 3.22266C83.2319 3.22266 83.7025 3.42414 83.4336 3.8271C83.3663 3.96142 79.8705 8.99844 79.8705 8.99844C79.8705 8.99844 79.6015 9.26708 79.8705 9.60288C79.8705 9.67004 83.9042 15.1772 83.9042 15.1772C83.9042 15.1772 84.3075 15.7816 83.7025 15.7816H79.1982C79.1982 15.7816 78.6603 15.7816 78.257 15.1772C78.1897 15.0429 75.5006 10.5431 75.5006 10.5431C75.5006 10.5431 75.5006 10.476 75.3661 10.5431V15.1772C75.4334 15.1772 75.4334 15.7816 74.8283 15.7816H71.3324C71.3324 15.7816 70.6602 15.7816 70.6602 15.1772V3.8271C70.6602 3.8271 70.6602 3.22266 71.3324 3.22266H74.8283C74.8283 3.22266 75.4334 3.22266 75.4334 3.8271C75.4334 4.02858 75.3661 8.59548 75.3661 8.59548C75.3661 8.59548 75.4334 8.7298 75.5006 8.59548C75.5006 8.52832 76.4418 6.78215 76.4418 6.78215L78.1897 3.8271C78.1897 3.8271 78.5931 3.22266 79.1982 3.22266H83.2319Z" fill="#ADADAD"/>
<path fill-rule="evenodd" clip-rule="evenodd" d="M89.4159 15.7816C89.4159 15.7816 90.0882 15.7816 90.0882 15.1772V3.8271C90.0882 3.8271 90.0882 3.22266 89.4159 3.22266H85.7856C85.7856 3.22266 85.1133 3.22266 85.1133 3.8271V15.1772C85.1133 15.1772 85.1133 15.7816 85.7856 15.7816H89.4159Z" fill="#ADADAD"/>
<path fill-rule="evenodd" clip-rule="evenodd" d="M92.5794 3.22266H97.8904C97.8904 3.22266 99.9073 3.22266 101.319 3.96142C101.454 3.96142 102.529 4.56586 103 5.64042C103 5.70758 103.403 6.51351 103.403 7.58807C103.403 7.65523 103.403 8.59548 103.067 9.19992C103.067 9.33424 102.596 10.2745 100.916 10.8118C100.916 10.8118 100.714 10.8118 100.848 11.0132C100.848 11.0132 101.386 11.349 101.655 11.752L104.143 15.1772C104.143 15.1772 104.68 15.8488 103.941 15.7816H99.5711C99.5711 15.7816 98.8988 15.7816 98.6299 15.1772C98.6299 15.0429 96.8147 11.8192 96.8147 11.8192H96.6803V15.1772C96.6803 15.1772 96.6803 15.7816 96.008 15.7816H92.5121C92.5121 15.7816 91.8398 15.7816 91.8398 15.1772V3.8271C91.8398 3.8271 91.8398 3.22266 92.5121 3.22266M96.7475 8.66264C96.7475 8.79696 97.0164 8.79696 97.0164 8.79696H97.2181C97.8232 8.79696 98.0921 8.66264 98.1593 8.66264C98.4955 8.52832 98.6299 8.25967 98.6299 8.25967C98.6971 8.05819 98.6971 7.72239 98.6971 7.72239C98.6971 7.38659 98.4955 7.11795 98.4955 7.11795C98.361 6.91647 98.0249 6.78215 98.0249 6.78215C97.6887 6.64783 97.0164 6.71499 96.882 6.71499C96.7475 6.71499 96.7475 6.84931 96.7475 6.84931V8.7298V8.66264Z" fill="#ADADAD"/>
<path fill-rule="evenodd" clip-rule="evenodd" d="M127.804 9.4014C125.586 6.04339 124.241 3.62562 124.241 3.62562C124.241 3.55846 124.107 3.42414 123.972 3.35698C123.838 3.28982 123.704 3.22266 123.569 3.22266C122.292 3.22266 121.082 3.22266 119.804 3.22266C119.199 3.22266 119.199 3.8271 119.199 3.8271V15.1772C119.199 15.7816 119.804 15.7816 119.804 15.7816H123.233C123.838 15.7816 123.838 15.1772 123.838 15.1772V9.7372C123.838 9.7372 123.838 9.60288 124.04 9.7372C124.04 9.7372 127.199 14.5727 127.603 15.1772C128.006 15.7816 128.544 15.7816 128.544 15.7816C129.956 13.3639 131.435 10.8789 132.847 8.46115C132.847 6.91647 132.712 5.37178 132.712 3.8271C132.712 3.22266 132.04 3.22266 132.04 3.22266H128.544C128.006 3.22266 128.006 3.8271 128.006 3.8271V9.4014C128.006 9.4014 128.006 9.46856 127.872 9.46856C127.872 9.46856 127.804 9.46856 127.737 9.4014H127.804Z" fill="#ADADAD"/>
<path fill-rule="evenodd" clip-rule="evenodd" d="M18.0222 15.7816C18.0222 15.7816 17.4172 15.7816 17.6861 15.1772C17.6861 15.0429 18.2239 13.834 18.2239 13.834L22.1904 3.8271C22.1904 3.8271 22.4593 3.22266 23.0644 3.22266H25.888C25.888 3.22266 26.6275 3.22266 26.5602 3.8271C26.5602 3.96142 26.0896 5.10314 26.0896 5.10314L22.4593 15.1772C22.4593 15.1772 22.2576 15.7816 21.5853 15.7816H18.0895" fill="#ADADAD"/>
<path fill-rule="evenodd" clip-rule="evenodd" d="M30.859 15.2453C30.859 15.2453 31.0607 15.7826 30.4556 15.7826C29.8506 15.7826 23.8 15.7826 23.8 15.7826C23.8 15.7826 23.1949 15.7826 23.3966 15.2453C23.5983 14.7081 26.7581 5.84291 26.7581 5.84291C26.7581 5.84291 27.027 5.57427 27.3631 5.84291C27.3631 5.97723 30.7918 15.2453 30.7918 15.2453" fill="#ADADAD"/>
<path fill-rule="evenodd" clip-rule="evenodd" d="M56.6121 15.7816C56.6121 15.7816 56.007 15.7816 56.2759 15.1772C56.2759 15.0429 56.8138 13.834 56.8138 13.834L60.7802 3.8271C60.7802 3.8271 61.0491 3.22266 61.6542 3.22266H64.4778C64.4778 3.22266 65.2173 3.22266 65.1501 3.8271C65.1501 3.96142 64.6795 5.10314 64.6795 5.10314L61.0491 15.1772C61.0491 15.1772 60.8475 15.7816 60.1752 15.7816H56.6793" fill="#ADADAD"/>
<path fill-rule="evenodd" clip-rule="evenodd" d="M69.4527 15.2453C69.4527 15.2453 69.6544 15.7826 69.0494 15.7826C68.4443 15.7826 62.3938 15.7826 62.3938 15.7826C62.3938 15.7826 61.7887 15.7826 61.9904 15.2453C62.1921 14.7081 65.3518 5.84291 65.3518 5.84291C65.3518 5.84291 65.6207 5.57427 65.9569 5.84291C65.9569 5.97723 69.3855 15.2453 69.3855 15.2453" fill="#ADADAD"/>
<path fill-rule="evenodd" clip-rule="evenodd" d="M105.284 15.7816C105.284 15.7816 104.679 15.7816 104.948 15.1772C104.948 15.0429 105.486 13.834 105.486 13.834L109.452 3.8271C109.452 3.8271 109.721 3.22266 110.326 3.22266H113.15C113.15 3.22266 113.889 3.22266 113.822 3.8271C113.822 3.96142 113.351 5.10314 113.351 5.10314L109.721 15.1772C109.721 15.1772 109.519 15.7816 108.847 15.7816H105.351" fill="#ADADAD"/>
<path fill-rule="evenodd" clip-rule="evenodd" d="M118.125 15.2453C118.125 15.2453 118.326 15.7826 117.721 15.7826C117.116 15.7826 111.066 15.7826 111.066 15.7826C111.066 15.7826 110.461 15.7826 110.662 15.2453C110.864 14.7081 114.024 5.84291 114.024 5.84291C114.024 5.84291 114.293 5.57427 114.629 5.84291C114.629 5.97723 118.057 15.2453 118.057 15.2453" fill="#ADADAD"/>
</svg>
