<svg width="179" height="30" viewBox="0 0 179 30" fill="none" xmlns="http://www.w3.org/2000/svg">
<mask id="mask0_5504_7510" style="mask-type:alpha" maskUnits="userSpaceOnUse" x="0" y="0" width="179" height="30">
<g clip-path="url(#clip0_5504_7510)">
<path d="M54.1561 0H29.1473C27.926 0 26.8641 0.955752 26.7579 2.17699L23.8906 29.7345H27.4481C28.6694 29.7345 29.7313 28.7788 29.8375 27.5575L32.0145 6.74336C32.0676 6.15929 32.5986 5.68142 33.2358 5.68142H37.2181L34.6163 29.7345H38.1738C39.3951 29.7345 40.457 28.7788 40.5632 27.5575L42.8464 5.68142H47.8906L45.342 29.7345H48.8995C50.1207 29.7345 51.1827 28.7788 51.2889 27.5575L53.572 5.68142L54.1561 0Z" fill="white"/>
<path d="M22.3009 0H5.30973C4.0885 0 3.02655 0.955752 2.92035 2.17699L2.54867 5.73451L1.53982 15.0796C1.38053 16.4071 2.33628 17.5752 3.66372 17.7345C3.76991 17.7345 3.82301 17.7345 3.9292 17.7345H13.5398C14.1239 17.7345 14.6018 18.2124 14.6018 18.7965C14.6018 18.8496 14.6018 18.8496 14.6018 18.9027L14.177 23.1504C14.1239 23.6814 13.646 24.1062 13.115 24.1062H6.31858L6.58407 21.7699H1.80531C1.27434 21.7699 0.79646 22.1947 0.743363 22.7257L0.584071 24.1062V24.3186L0 29.7345H16.9911C18.2124 29.7345 19.2743 28.8319 19.3805 27.6106L19.7522 24.0531L20.4425 17.7345L20.7611 14.708C20.9204 13.3805 19.9646 12.2124 18.6372 12.0531C18.531 12.0531 18.4779 12.0531 18.3717 12.0531H8.70796C8.12389 12.0531 7.64602 11.5752 7.64602 10.9912C7.64602 10.9381 7.64602 10.9381 7.64602 10.885L8.0708 6.79646C8.12389 6.21239 8.65487 5.73451 9.29204 5.73451H15.9823L15.7168 8.0708H20.4425C20.9734 8.0708 21.4513 7.64602 21.5044 7.11504L21.6637 5.73451L22.3009 0Z" fill="white"/>
<path d="M119.417 27.9824C119.948 28.6196 120.691 28.9912 121.541 28.9912C122.337 28.9912 122.656 28.5134 122.656 28.0886C122.656 27.6638 122.072 27.3983 121.435 27.1859C120.585 26.8673 119.523 26.4426 119.523 25.4337C119.523 24.4249 120.426 23.4691 121.912 23.4691C122.815 23.416 123.718 23.7877 124.355 24.478L123.665 25.2744C123.187 24.7435 122.496 24.4249 121.806 24.4249C121.275 24.3718 120.797 24.7435 120.744 25.2213C120.744 25.6461 121.275 25.8585 121.965 26.0709C122.868 26.3895 123.877 26.8142 123.877 27.8762C123.877 28.9381 122.974 30.0001 121.435 30.0001C120.373 30.0532 119.364 29.6284 118.727 28.8319L119.417 27.9824Z" fill="white"/>
<path d="M127.274 25.1682C128.654 25.1682 129.451 26.0178 129.451 27.239C129.504 28.7257 128.336 29.947 126.849 30.0001C125.468 30.0001 124.672 29.1505 124.672 27.9293C124.672 26.4425 125.84 25.2213 127.274 25.1682ZM127.274 26.0178C126.371 26.0178 125.734 26.9204 125.734 27.8231C125.681 28.4602 126.105 28.9912 126.743 29.0443C126.796 29.0443 126.849 29.0443 126.902 29.0443C127.805 28.9381 128.495 28.1417 128.442 27.239C128.495 26.6018 128.07 26.0709 127.433 26.0178C127.38 26.0178 127.327 26.0178 127.274 26.0178Z" fill="white"/>
<path d="M131.416 23.5221H132.425L131.044 29.8407H130.035L131.416 23.5221Z" fill="white"/>
<path d="M133.803 28.1415C133.803 28.2477 133.749 28.3539 133.749 28.4601C133.749 28.938 134.121 29.0973 134.599 29.0973C135.077 29.0442 135.502 28.8318 135.82 28.4601L136.511 25.2743H137.519L136.511 29.8407H135.502L135.661 29.2035C135.236 29.6283 134.705 29.8938 134.068 29.9469C133.218 29.9469 132.688 29.5221 132.688 28.7787C132.688 28.6725 132.688 28.5132 132.741 28.407L133.431 25.2212H134.44L133.803 28.1415Z" fill="white"/>
<path d="M138.37 28.7257L138.954 26.1239H138.211L138.423 25.2743H139.167L139.432 24H140.441L140.176 25.2743H141.131L140.919 26.1239H139.963L139.432 28.5133C139.432 28.5664 139.432 28.6195 139.432 28.6726C139.432 28.9381 139.591 29.0973 139.91 29.0973C140.069 29.0973 140.176 29.0442 140.282 28.9911L140.335 29.7876C140.122 29.9469 139.857 30 139.591 30C138.848 30 138.37 29.6814 138.37 29.0442C138.317 28.9381 138.317 28.8319 138.37 28.7257Z" fill="white"/>
<path d="M142.036 25.2743H143.045L142.036 29.8407H141.027L142.036 25.2743ZM142.886 23.2566C143.204 23.2566 143.417 23.469 143.47 23.7345C143.47 23.7345 143.47 23.7345 143.47 23.7876C143.47 24.1592 143.151 24.4778 142.78 24.4778C142.461 24.4778 142.249 24.2654 142.195 24C142.195 24 142.195 24 142.195 23.9469C142.195 23.5752 142.514 23.3097 142.886 23.2566Z" fill="white"/>
<path d="M146.229 25.1682C147.609 25.1682 148.406 26.0178 148.406 27.239C148.459 28.7257 147.29 29.947 145.804 30.0001C144.423 30.0001 143.627 29.1505 143.627 27.9293C143.574 26.4425 144.742 25.2213 146.229 25.1682ZM146.175 26.0178C145.273 26.0178 144.636 26.9204 144.636 27.8231C144.582 28.4602 145.007 28.9912 145.644 29.0443C145.698 29.0443 145.751 29.0443 145.857 29.0443C146.759 28.9381 147.45 28.1417 147.397 27.239C147.45 26.6018 147.025 26.0709 146.388 26.0178C146.282 26.0178 146.229 26.0178 146.175 26.0178Z" fill="white"/>
<path d="M152.707 26.9734C152.761 26.8672 152.761 26.761 152.761 26.7079C152.761 26.23 152.389 26.0707 151.964 26.0707C151.486 26.1238 151.008 26.3362 150.637 26.7079L149.946 29.8938H148.938L149.946 25.3274H150.955L150.796 25.9646C151.221 25.5398 151.752 25.2743 152.389 25.2212C153.238 25.2212 153.769 25.646 153.769 26.3893C153.769 26.4955 153.769 26.6548 153.716 26.761L153.026 29.9469H152.017L152.707 26.9734Z" fill="white"/>
<path d="M154.832 28.4601C155.203 28.938 155.788 29.1504 156.425 29.2035C156.956 29.2035 157.274 28.8849 157.274 28.5663C157.274 28.2477 156.849 28.0884 156.372 27.9292C155.681 27.6637 154.938 27.3982 154.938 26.6548C154.938 25.9115 155.575 25.1681 156.743 25.1681C157.434 25.1681 158.124 25.4336 158.602 25.9115L158.071 26.5486C157.699 26.1769 157.221 25.9646 156.69 25.9646C156.159 25.9646 155.894 26.1769 155.894 26.4955C155.894 26.8141 156.318 26.9203 156.796 27.0796C157.487 27.292 158.283 27.6106 158.283 28.407C158.283 29.2035 157.593 29.9999 156.372 29.9999C155.575 30.053 154.832 29.7345 154.301 29.2035L154.832 28.4601Z" fill="white"/>
<path d="M121.591 11.469H122.707L121.326 17.7876H120.211L121.591 11.469Z" fill="white"/>
<path d="M126.424 14.9204C126.477 14.8142 126.477 14.708 126.477 14.6549C126.477 14.1771 126.105 14.0178 125.734 14.0178C125.256 14.0709 124.778 14.2833 124.406 14.6549L123.716 17.8408H122.707L123.716 13.2744H124.725L124.565 13.9116C124.99 13.4868 125.521 13.2213 126.105 13.1682C126.955 13.1682 127.486 13.593 127.486 14.3364C127.486 14.4425 127.486 14.6018 127.433 14.708L126.742 17.8939H125.734L126.424 14.9204Z" fill="white"/>
<path d="M129.24 14.0709H128.497L128.709 13.1682H129.453L129.506 12.9027C129.718 11.8939 130.249 11.3098 131.152 11.3098C131.47 11.3098 131.789 11.3629 132.107 11.5753L131.736 12.2656C131.576 12.1594 131.417 12.1063 131.258 12.1063C130.833 12.1063 130.621 12.3718 130.515 12.9027L130.461 13.1682H131.417L131.205 14.0178H130.249L129.399 17.7346H128.391L129.24 14.0709Z" fill="white"/>
<path d="M132.214 13.2212H133.223L133.064 13.8584C133.489 13.3805 134.073 13.115 134.71 13.115L134.497 14.1238C134.338 14.0707 134.232 14.0707 134.073 14.0707C133.595 14.1238 133.17 14.3362 132.851 14.7079L132.161 17.7876H131.152L132.214 13.2212Z" fill="white"/>
<path d="M138.848 13.2212H139.857L138.848 17.7876H137.839L137.998 17.2035C137.68 17.6283 137.149 17.9468 136.565 17.9468C135.503 17.9468 134.812 17.2566 134.812 16.0353C134.812 14.6017 135.715 13.115 137.202 13.115C137.786 13.115 138.37 13.3805 138.742 13.9115L138.848 13.2212ZM136.936 17.0442C137.414 17.0442 137.839 16.7787 138.158 16.407L138.582 14.6548C138.317 14.23 137.839 14.0176 137.361 14.0176C136.459 14.0176 135.821 14.9203 135.821 15.8761C135.768 16.4601 136.193 17.0442 136.83 17.0973C136.83 17.0442 136.883 17.0442 136.936 17.0442Z" fill="white"/>
<path d="M140.601 16.407C140.973 16.8849 141.557 17.0973 142.194 17.1504C142.725 17.1504 143.044 16.8849 143.044 16.5132C143.044 16.1415 142.619 16.0353 142.141 15.8761C141.451 15.6106 140.707 15.3451 140.707 14.6017C140.707 13.8584 141.345 13.115 142.513 13.115C143.203 13.115 143.893 13.3805 144.371 13.8584L143.84 14.4955C143.522 14.1238 142.991 13.8584 142.46 13.8584C141.929 13.8584 141.663 14.1238 141.663 14.3893C141.663 14.6548 142.088 14.8141 142.566 14.9734C143.256 15.2389 144.053 15.5044 144.053 16.3008C144.053 17.0973 143.362 17.8938 142.141 17.8938C141.345 17.9468 140.601 17.6283 140.07 17.0973L140.601 16.407Z" fill="white"/>
<path d="M145.222 16.6726L145.806 14.0708H145.062L145.275 13.2212H146.071L146.337 11.9469H147.346L147.08 13.2212H148.036L147.824 14.0708H146.868L146.337 16.4602C146.337 16.5133 146.337 16.5664 146.337 16.6195C146.337 16.885 146.496 17.0442 146.815 17.0442C146.974 17.0442 147.08 16.9911 147.186 16.938L147.239 17.7345C147.027 17.8938 146.762 17.9469 146.496 17.9469C145.753 17.9469 145.275 17.6283 145.275 16.9911C145.222 16.885 145.222 16.7788 145.222 16.6726Z" fill="white"/>
<path d="M148.937 13.2212H149.946L149.787 13.8584C150.211 13.3805 150.795 13.115 151.433 13.115L151.22 14.1238C151.061 14.0707 150.955 14.0707 150.795 14.0707C150.317 14.1238 149.893 14.3362 149.574 14.7079L148.884 17.7876H147.875L148.937 13.2212Z" fill="white"/>
<path d="M152.654 16.0886C152.654 16.1948 152.601 16.301 152.601 16.4072C152.601 16.885 152.973 17.0443 153.451 17.0443C153.928 16.9912 154.353 16.7788 154.672 16.4072L155.362 13.2213H156.371L155.362 17.7877H154.353L154.513 17.1505C154.088 17.5753 153.504 17.8408 152.92 17.8939C152.07 17.8939 151.539 17.4691 151.539 16.7257C151.539 16.6195 151.539 16.4602 151.592 16.3541L152.282 13.1682H153.291L152.654 16.0886Z" fill="white"/>
<path d="M159.557 13.1151C160.3 13.062 160.99 13.3806 161.415 14.0177L160.672 14.6018C160.459 14.2301 160.035 14.0177 159.61 14.0177C158.654 14.0708 157.964 14.8142 157.964 15.77V15.823C157.911 16.4602 158.442 16.9912 159.079 17.0443C159.132 17.0443 159.185 17.0443 159.238 17.0443C159.663 17.0443 160.035 16.885 160.3 16.5664L160.831 17.2567C160.406 17.7346 159.769 18 159.132 18C157.804 18 156.955 17.2036 156.955 15.9292C156.902 14.4425 158.07 13.2213 159.504 13.1682C159.557 13.1151 159.557 13.1151 159.557 13.1151Z" fill="white"/>
<path d="M162.05 16.6726L162.634 14.0708H161.891L162.103 13.2212H162.846L163.112 11.9469H164.121L163.855 13.2212H164.811L164.599 14.0708H163.643L163.112 16.4602C163.112 16.5133 163.112 16.5664 163.112 16.6195C163.112 16.885 163.271 17.0442 163.59 17.0442C163.749 17.0442 163.855 16.9911 163.961 16.938L164.015 17.7345C163.802 17.8938 163.537 17.9469 163.271 17.9469C162.528 17.9469 162.05 17.6283 162.05 16.9911C161.997 16.885 161.997 16.7788 162.05 16.6726Z" fill="white"/>
<path d="M166.088 16.0886C166.088 16.1948 166.035 16.301 166.035 16.4072C166.035 16.885 166.406 17.0443 166.884 17.0443C167.362 16.9912 167.787 16.7788 168.105 16.4072L168.796 13.2213H169.805L168.796 17.7877H167.787L167.946 17.1505C167.521 17.5753 166.99 17.8408 166.353 17.8939C165.504 17.8939 164.973 17.4691 164.973 16.7257C164.973 16.6195 164.973 16.4602 165.026 16.3541L165.716 13.1682H166.725L166.088 16.0886Z" fill="white"/>
<path d="M171.189 13.2212H172.197L172.038 13.8584C172.463 13.3805 173.1 13.115 173.737 13.115L173.525 14.1238C173.366 14.0707 173.259 14.0707 173.1 14.0707C172.622 14.1238 172.197 14.3362 171.879 14.7079L171.189 17.7876H170.18L171.189 13.2212Z" fill="white"/>
<path d="M176.389 13.1151C177.451 13.062 178.354 13.8584 178.407 14.9204C178.407 14.9735 178.407 15.0797 178.407 15.1328C178.407 15.3451 178.354 15.6106 178.301 15.823H174.743V15.9823C174.743 16.5133 175.221 17.0974 176.124 17.0974C176.549 17.0974 176.973 16.9912 177.345 16.7257L177.664 17.4159C177.186 17.7345 176.655 17.8938 176.071 17.9469C174.637 17.9469 173.734 17.1505 173.734 15.8761C173.734 14.3894 174.849 13.1682 176.389 13.1151ZM177.504 14.9735C177.504 14.3894 177.026 13.9115 176.442 13.9115C176.389 13.9115 176.336 13.9115 176.283 13.9115C175.593 13.9115 175.009 14.4425 174.849 15.1328H177.504C177.504 15.0797 177.504 15.0266 177.504 14.9735Z" fill="white"/>
<path d="M121.165 4.24772C121.696 4.83179 122.493 5.20348 123.289 5.15038C124.086 5.15038 124.457 4.7256 124.457 4.35392C124.457 3.98224 123.873 3.76985 123.236 3.50436C122.386 3.18578 121.378 2.8141 121.378 1.91144C121.378 1.00879 122.333 0.159228 123.767 0.212326C124.67 0.212326 125.519 0.53091 126.156 1.16808L125.413 1.85834C124.935 1.38047 124.245 1.11498 123.555 1.11498C122.971 1.11498 122.493 1.43356 122.493 1.80525C122.493 2.17693 123.024 2.33622 123.661 2.60171C124.51 2.92029 125.572 3.29197 125.572 4.24772C125.572 5.20348 124.67 6.10613 123.13 6.05303C122.121 6.10613 121.112 5.73445 120.422 4.99109L121.165 4.24772Z" fill="white"/>
<path d="M132.903 1.69914L129.77 6.05312H129.292L128.549 1.59294L127.381 6.00002H126.266L127.752 0.371704H129.292L129.982 4.35401L132.744 0.424801L134.336 0.477899L132.85 6.05312H131.735L132.903 1.69914Z" fill="white"/>
<path d="M138.315 0.477905C139.749 0.531003 140.652 1.16817 141.023 2.01773L139.961 2.33631C139.643 1.69914 138.952 1.32746 138.262 1.38056C136.935 1.32746 135.82 2.38941 135.82 3.71684C135.82 4.72569 136.563 5.41596 137.731 5.41596C138.315 5.41596 138.899 5.20357 139.324 4.83189L140.174 5.36286C139.483 6.00003 138.581 6.37171 137.678 6.31861C135.979 6.31861 134.652 5.30976 134.705 3.76994C134.705 1.75224 136.457 0.477905 138.315 0.477905Z" fill="white"/>
<path d="M89.1506 0H83.4692L82.832 5.84071C84.7435 4.30088 86.7612 2.97345 88.9382 1.80531L89.1506 0Z" fill="white"/>
<path d="M83.8404 29.7345C85.0616 29.7345 86.1235 28.7787 86.2297 27.5575L88.566 5.52209C86.1766 7.22121 84.0527 9.23891 82.2474 11.5221L80.3359 29.6814L83.8404 29.7345Z" fill="white"/>
<path d="M78.7412 0H61.0597C59.8385 0 58.7765 0.955752 58.6704 2.17699L58.2987 5.73451L56.3341 24.1062L55.75 29.7876H73.4314C74.6527 29.7876 75.7146 28.8319 75.8208 27.6106L76.1925 24.0531L76.2987 22.8319C76.3518 22.2478 75.927 21.7168 75.3429 21.6637C75.2898 21.6637 75.2898 21.6637 75.2367 21.6637H70.7234L70.458 24.0531H61.9624L63.8208 6.58407C63.8739 6.0531 64.3518 5.62832 64.8827 5.62832H72.4226L72.2102 7.9646H76.9358C77.4668 7.9646 77.9447 7.53982 77.9978 7.00885L78.1571 5.62832L78.7412 0Z" fill="white"/>
<path d="M112.988 0H95.9972C94.776 0 93.714 0.955752 93.6079 2.17699L93.2362 5.73451L92.2273 15.0796C92.068 16.4071 93.0769 17.5752 94.4043 17.7345C94.5105 17.7345 94.5636 17.7345 94.6698 17.7345H104.28C104.864 17.7345 105.342 18.2124 105.342 18.7965C105.342 18.8496 105.342 18.8496 105.342 18.9027L104.918 23.1504C104.864 23.6814 104.387 24.1062 103.856 24.1062H97.0061L97.2716 21.7699H92.5459C92.0149 21.7699 91.5371 22.1947 91.484 22.7257L91.3247 24.1062V24.3186L90.6875 29.7345H107.679C108.9 29.7345 109.962 28.8319 110.068 27.6106L110.44 24.0531L111.13 17.7345L111.449 14.708C111.608 13.3805 110.652 12.2124 109.325 12.0531C109.218 12.0531 109.165 12.0531 109.059 12.0531H99.4486C98.8645 12.0531 98.3866 11.5752 98.3866 10.9912C98.3866 10.9381 98.3866 10.9381 98.3866 10.885L98.8114 6.79646C98.8645 6.21239 99.3955 5.73451 100.033 5.73451H106.723L106.457 8.0708H111.183C111.714 8.0708 112.192 7.64602 112.245 7.11504L112.404 5.73451L112.988 0Z" fill="white"/>
</g>
</mask>
<g mask="url(#mask0_5504_7510)">
<rect y="-6.3717" width="178.407" height="36.6372" fill="#ADADAD"/>
</g>
<defs>
<clipPath id="clip0_5504_7510">
<rect width="178.407" height="30" fill="white"/>
</clipPath>
</defs>
</svg>
